<svg width="100%" height="100%" id="svg" viewBox="0 0 1440 700" xmlns="http://www.w3.org/2000/svg" class="transition duration-300 ease-in-out delay-150"><defs><linearGradient id="gradient" x1="57%" y1="0%" x2="43%" y2="100%"><stop offset="5%" stop-color="#3ba0fd88"></stop><stop offset="95%" stop-color="#0693e388"></stop></linearGradient></defs><path d="M 0,700 C 0,700 0,233 0,233 C 69.28974358974361,224.77948717948718 138.57948717948722,216.55897435897435 216,220 C 293.4205128205128,223.44102564102565 378.9717948717948,238.54358974358973 465,264 C 551.0282051282052,289.45641025641027 637.5333333333333,325.26666666666665 730,318 C 822.4666666666667,310.73333333333335 920.8948717948717,260.3897435897436 995,259 C 1069.1051282051283,257.6102564102564 1118.8871794871795,305.174358974359 1189,309 C 1259.1128205128205,312.825641025641 1349.5564102564103,272.91282051282053 1440,233 C 1440,233 1440,700 1440,700 Z" stroke="none" stroke-width="0" fill="url(#gradient)" class="transition-all duration-300 ease-in-out delay-150 path-0" transform="rotate(-180 720 350)"></path><defs><linearGradient id="gradient" x1="57%" y1="0%" x2="43%" y2="100%"><stop offset="5%" stop-color="#3ba0fdff"></stop><stop offset="95%" stop-color="#0693e3ff"></stop></linearGradient></defs><path d="M 0,700 C 0,700 0,466 0,466 C 93.4025641025641,432.8410256410257 186.8051282051282,399.6820512820513 274,388 C 361.1948717948718,376.3179487179487 442.18205128205136,386.1128205128205 512,403 C 581.8179487179486,419.8871794871795 640.4666666666667,443.8666666666666 722,452 C 803.5333333333333,460.1333333333334 907.9512820512819,452.42051282051284 989,437 C 1070.0487179487181,421.57948717948716 1127.7282051282052,398.451282051282 1199,402 C 1270.2717948717948,405.548717948718 1355.1358974358973,435.77435897435896 1440,466 C 1440,466 1440,700 1440,700 Z" stroke="none" stroke-width="0" fill="url(#gradient)" class="transition-all duration-300 ease-in-out delay-150 path-1" transform="rotate(-180 720 350)"></path></svg>